# xmcd
#
# Track frame offsets: 
#        150
#        14948
#        32046
#        50030
#        67624
#        82070
#        102297
#        118662
#
# Disc length: 1804 seconds
#
# Revision: 1
# Processed by: cddbd v1.5.2PL0 Copyright (c) Steve Scherf et al.
# Submitted via: ExactAudioCopyFreeDBPlugin 1.0
#
DISCID=6a070a08
DTITLE=Robynn and Kendy - Picturesque
DYEAR=2014
DGENRE=Country
TTITLE0=NOT JUST ANOTHER GIRL
TTITLE1=降落傘 (｢茶木｣微電影插曲)
TTITLE2=蝶亂飛
TTITLE3=月湖
TTITLE4=MY HOME (香港電台電視劇｢同里有親｣主題曲)
TTITLE5=一切很美只因有你 (舞台劇｢勁金歌曲｣插曲)
TTITLE6=手望 - 笑忘書 MEDLEY (舞台劇｢勁金歌曲｣插曲)
TTITLE7=找自己 (國)
EXTD=
EXTT0=
EXTT1=
EXTT2=
EXTT3=
EXTT4=
EXTT5=
EXTT6=
EXTT7=
PLAYORDER=
